<svg width="72" height="72" viewBox="0 0 72 72" fill="none" xmlns="http://www.w3.org/2000/svg">
<circle opacity="0.15" cx="36" cy="36" r="36" fill="#FF9900"/>
<g clip-path="url(#clip0_38_276)">
<path d="M28.1996 45.5996C29.1932 45.5996 29.9996 46.406 29.9996 47.3996C29.9996 48.3932 29.1932 49.1996 28.1996 49.1996C27.206 49.1996 26.3996 48.3932 26.3996 47.3996C26.3996 46.406 27.206 45.5996 28.1996 45.5996ZM43.7996 45.5996C44.7932 45.5996 45.5996 46.406 45.5996 47.3996C45.5996 48.3932 44.7932 49.1996 43.7996 49.1996C42.806 49.1996 41.9996 48.3932 41.9996 47.3996C41.9996 46.406 42.806 45.5996 43.7996 45.5996ZM24.206 23.708L28.7984 28.3016V41.9996H45.5996V44.3996H27.5996C26.9372 44.3996 26.3996 43.862 26.3996 43.1996V29.2952L22.5068 25.406L24.2048 23.708H24.206ZM40.7996 25.1996C41.462 25.1996 41.9996 25.7372 41.9996 26.3996V28.7996H45.5912C46.2596 28.7996 46.7996 29.3468 46.7996 29.9936V39.6056C46.7996 40.2656 46.2596 40.7996 45.5912 40.7996H31.208C30.5396 40.7996 29.9996 40.2524 29.9996 39.6056V29.9936C29.9996 29.3336 30.5396 28.7996 31.208 28.7996H34.7984L34.7996 26.3996C34.7996 25.7372 35.3372 25.1996 35.9996 25.1996H40.7996ZM33.5996 31.1996H32.3996V38.3996H33.5996V31.1996ZM40.7996 31.1996H35.9996V38.3996H40.7996V31.1996ZM44.3996 31.1996H43.1996V38.3996H44.3996V31.1996ZM39.5996 27.5996H37.1996V28.7996H39.5996V27.5996Z" fill="#FF9900"/>
</g>
<defs>
<clipPath id="clip0_38_276">
<rect width="28.8" height="28.8" fill="white" transform="translate(21.5996 21.5996)"/>
</clipPath>
</defs>
</svg>
