<svg width="125" height="35" viewBox="0 0 125 35" fill="none" xmlns="http://www.w3.org/2000/svg">
<path fill-rule="evenodd" clip-rule="evenodd" d="M20.6911 33.6472C27.6193 31.536 32.6598 25.0946 32.6598 17.4759C32.6598 9.81999 27.57 3.35292 20.5896 1.27393H108.254C117.194 1.27393 124.441 8.52093 124.441 17.4606C124.441 26.4002 117.194 33.6472 108.254 33.6472H20.6911Z" fill="#1074EB"/>
<circle cx="15.4704" cy="17.4758" r="15.4704" fill="#FF9900"/>
<path d="M16.4573 13.3182C16.4575 13.8705 16.9054 14.3182 17.4577 14.3182H21.4414C22.1496 14.3182 22.6336 15.0339 22.3698 15.691L16.5447 30.2018C16.1348 31.2227 14.617 30.9292 14.6166 29.829L14.6137 21.6818C14.6135 21.1295 14.1656 20.6818 13.6133 20.6818H9.62955C8.92142 20.6818 8.43738 19.9661 8.70115 19.309L14.5263 4.79818C14.9361 3.77731 16.454 4.07082 16.4544 5.171L16.4573 13.3182Z" fill="white"/>
<path d="M46.0291 26.5326C44.4752 26.5326 43.1717 26.2822 42.1184 25.7815C41.0652 25.2808 40.2624 24.6247 39.7099 23.8132C39.1746 23.0017 38.8898 22.1384 38.8552 21.2234C38.8552 21.068 38.907 20.9385 39.0106 20.8349C39.1142 20.7313 39.2437 20.6795 39.3991 20.6795H42.3256C42.5328 20.6795 42.6969 20.7313 42.8177 20.8349C42.9558 20.9212 43.0594 21.0421 43.1285 21.1975C43.3012 21.6636 43.5256 22.0435 43.8019 22.337C44.0954 22.6305 44.4321 22.8463 44.8119 22.9845C45.1918 23.1226 45.5975 23.1916 46.0291 23.1916C46.5816 23.1916 47.091 23.0794 47.5572 22.855C48.0233 22.6132 48.3945 22.2679 48.6708 21.819C48.9471 21.3701 49.0852 20.8176 49.0852 20.1615C49.0852 19.5917 48.9557 19.091 48.6967 18.6594C48.4377 18.2277 48.0751 17.8911 47.609 17.6493C47.1428 17.4076 46.6162 17.2868 46.0291 17.2868C45.5802 17.2868 45.209 17.3386 44.9155 17.4422C44.6392 17.5457 44.4062 17.6752 44.2162 17.8306C44.0263 17.9688 43.8537 18.0983 43.6983 18.2191C43.5429 18.3227 43.3702 18.3745 43.1803 18.3745H40.3055C40.1502 18.3745 40.012 18.3227 39.8912 18.2191C39.7876 18.0983 39.7358 17.9601 39.7358 17.8047L40.6422 8.86971C40.6768 8.62799 40.7631 8.4467 40.9012 8.32584C41.0566 8.18772 41.2379 8.11865 41.4451 8.11865H51.4938C51.6837 8.11865 51.8391 8.17908 51.9599 8.29994C52.0808 8.4208 52.1412 8.57619 52.1412 8.76612V10.838C52.1412 11.0107 52.0808 11.1574 51.9599 11.2783C51.8391 11.3991 51.6837 11.4596 51.4938 11.4596H44.009L43.6206 15.2667C43.9659 15.0422 44.3889 14.8437 44.8896 14.671C45.4076 14.4811 46.1241 14.3861 47.0392 14.3861C47.8679 14.3861 48.6535 14.5242 49.396 14.8005C50.1557 15.0595 50.829 15.448 51.4161 15.9659C52.0031 16.4839 52.4606 17.1055 52.7887 17.8306C53.134 18.5385 53.3067 19.35 53.3067 20.2651C53.3067 21.5082 53.0131 22.6046 52.4261 23.5542C51.8391 24.4866 51.0017 25.2204 49.9139 25.7556C48.8262 26.2736 47.5313 26.5326 46.0291 26.5326Z" fill="white"/>
<path d="M62.5664 26.2477C62.3765 26.2477 62.2211 26.1873 62.1002 26.0664C61.9794 25.9455 61.919 25.7901 61.919 25.6002V8.76612C61.919 8.57619 61.9794 8.4208 62.1002 8.29994C62.2211 8.17908 62.3765 8.11865 62.5664 8.11865H65.3117C65.5016 8.11865 65.657 8.17908 65.7778 8.29994C65.8987 8.4208 65.9591 8.57619 65.9591 8.76612V14.671L71.2943 8.61073C71.3633 8.50713 71.4755 8.40354 71.6309 8.29994C71.8036 8.17908 72.028 8.11865 72.3043 8.11865H75.438C75.5934 8.11865 75.7229 8.17908 75.8265 8.29994C75.9301 8.40354 75.9819 8.5244 75.9819 8.66252C75.9819 8.78338 75.9474 8.88698 75.8783 8.97331L69.2224 16.7947L76.3704 25.393C76.4394 25.4621 76.474 25.5657 76.474 25.7038C76.474 25.8419 76.4222 25.9714 76.3186 26.0923C76.215 26.1959 76.0855 26.2477 75.9301 26.2477H72.6928C72.382 26.2477 72.1489 26.1786 71.9935 26.0405C71.8381 25.9024 71.7345 25.8074 71.6827 25.7556L65.9591 19.1256V25.6002C65.9591 25.7901 65.8987 25.9455 65.7778 26.0664C65.657 26.1873 65.5016 26.2477 65.3117 26.2477H62.5664Z" fill="white"/>
<path d="M83.9188 26.2477C83.6426 26.2477 83.4181 26.1786 83.2455 26.0405C83.0901 25.8851 82.9778 25.7038 82.9088 25.4966L77.4701 8.89561C77.4528 8.80928 77.4442 8.73159 77.4442 8.66252C77.4442 8.5244 77.496 8.40354 77.5996 8.29994C77.7031 8.17908 77.8326 8.11865 77.988 8.11865H80.7074C80.9664 8.11865 81.1649 8.19635 81.3031 8.35174C81.4585 8.48987 81.5534 8.61936 81.5879 8.74022L85.6281 21.4046L89.6424 8.74022C89.6942 8.61936 89.7892 8.48987 89.9273 8.35174C90.0654 8.19635 90.264 8.11865 90.523 8.11865H93.2423C93.3977 8.11865 93.5272 8.17908 93.6308 8.29994C93.7344 8.40354 93.7862 8.5244 93.7862 8.66252C93.7862 8.73159 93.7776 8.80928 93.7603 8.89561L88.3216 25.4966C88.2698 25.7038 88.1576 25.8851 87.9849 26.0405C87.8295 26.1786 87.6051 26.2477 87.3115 26.2477H83.9188Z" fill="white"/>
<path d="M101.002 26.2477C100.812 26.2477 100.657 26.1873 100.536 26.0664C100.415 25.9455 100.355 25.7901 100.355 25.6002V11.7186H95.641C95.4683 11.7186 95.3216 11.6581 95.2007 11.5373C95.0798 11.4164 95.0194 11.2697 95.0194 11.097V8.76612C95.0194 8.57619 95.0798 8.4208 95.2007 8.29994C95.3216 8.17908 95.4683 8.11865 95.641 8.11865H109.212C109.402 8.11865 109.557 8.17908 109.678 8.29994C109.799 8.4208 109.859 8.57619 109.859 8.76612V11.097C109.859 11.2697 109.799 11.4164 109.678 11.5373C109.557 11.6581 109.402 11.7186 109.212 11.7186H104.524V25.6002C104.524 25.7901 104.464 25.9455 104.343 26.0664C104.222 26.1873 104.067 26.2477 103.877 26.2477H101.002Z" fill="white"/>
</svg>
