<svg width="1140" height="500" viewBox="0 0 1140 500" fill="none" xmlns="http://www.w3.org/2000/svg">
<rect width="1140" height="500" rx="3" fill="#EEF1F8"/>
<g clip-path="url(#clip0_6711_1025)">
<g opacity="0.2" filter="url(#filter0_f_6711_1025)">
<path d="M10.5 -33L16.4441 -3.83134L39.7468 -22.355L25.551 3.81027L55.3088 4.59901L27.6154 15.5179L49.9042 35.25L21.6713 25.8134L26.0619 55.256L10.5 29.8795L-5.06192 55.256L-0.671299 25.8134L-28.9042 35.25L-6.61542 15.5179L-34.3088 4.59901L-4.55105 3.81027L-18.7468 -22.355L4.55588 -3.83134L10.5 -33Z" fill="#1074EB"/>
</g>
<g opacity="0.3" filter="url(#filter1_f_6711_1025)">
<path d="M420.291 333.652L430.056 353.223L443.071 335.645L437.972 356.914L459.241 351.815L441.664 364.83L461.234 374.596L439.403 373.267L448.118 393.327L432.248 378.277L426.03 399.246L423.547 377.516L405.305 389.582L417.37 371.34L395.64 368.857L416.609 362.638L401.559 346.769L421.619 355.483L420.291 333.652Z" fill="#1074EB"/>
</g>
<g opacity="0.1" filter="url(#filter2_f_6711_1025)">
<path d="M624.744 460.874L650.655 490.143L664.993 453.777L666.029 492.853L700.388 474.212L676.063 504.812L714.366 512.618L676.063 520.423L700.388 551.023L666.029 532.382L664.993 571.458L650.655 535.093L624.744 564.361L637.135 527.287L598.473 533.053L631.796 512.618L598.473 492.183L637.135 497.948L624.744 460.874Z" fill="#1074EB"/>
</g>
<g opacity="0.3" filter="url(#filter3_f_6711_1025)">
<path d="M52.8832 237.452L56.7792 245.26L61.9719 238.247L59.9376 246.733L68.4232 244.698L61.4103 249.891L69.2184 253.787L60.5084 253.257L63.9853 261.261L57.6538 255.256L55.1727 263.622L54.1822 254.952L46.9041 259.766L51.718 252.488L43.0483 251.498L51.4143 249.017L45.4096 242.685L53.4131 246.162L52.8832 237.452Z" fill="#1074EB"/>
</g>
<g opacity="0.3" filter="url(#filter4_f_6711_1025)">
<path d="M1062.88 389.452L1066.78 397.26L1071.97 390.247L1069.94 398.733L1078.42 396.698L1071.41 401.891L1079.22 405.787L1070.51 405.257L1073.99 413.261L1067.65 407.256L1065.17 415.622L1064.18 406.952L1056.9 411.766L1061.72 404.488L1053.05 403.498L1061.41 401.017L1055.41 394.685L1063.41 398.162L1062.88 389.452Z" fill="#1074EB"/>
</g>
<g opacity="0.1" filter="url(#filter5_f_6711_1025)">
<path d="M385.291 -32.3477L395.056 -12.7773L408.071 -30.3546L402.972 -9.0859L424.241 -14.1849L406.664 -1.16967L426.234 8.59556L404.403 7.26731L413.118 27.3275L397.248 12.2773L391.03 33.246L388.547 11.516L370.305 23.5818L382.37 5.3397L360.64 2.85685L381.609 -3.36166L366.559 -19.2314L386.619 -10.5166L385.291 -32.3477Z" fill="#1074EB"/>
</g>
<g opacity="0.2" filter="url(#filter6_f_6711_1025)">
<path d="M93.008 371.596L107.224 400.086L126.171 374.497L118.748 405.459L149.71 398.036L124.122 416.984L152.612 431.199L120.831 429.266L133.518 458.469L110.415 436.559L101.362 467.085L97.7477 435.451L71.1915 453.016L88.7565 426.46L57.1227 422.845L87.6483 413.793L65.7387 390.69L94.9416 403.377L93.008 371.596Z" fill="#1074EB"/>
</g>
<g opacity="0.2" filter="url(#filter7_f_6711_1025)">
<path d="M1108.59 -63.6029L1133.86 -12.9438L1167.56 -58.4439L1154.36 -3.38842L1209.41 -16.5875L1163.91 17.1032L1214.57 42.3811L1158.06 38.9428L1180.62 90.8698L1139.54 51.9114L1123.44 106.19L1117.01 49.9408L1069.79 81.174L1101.03 33.9531L1044.78 27.5261L1099.06 11.4291L1060.1 -29.6507L1112.03 -7.09194L1108.59 -63.6029Z" fill="#1074EB"/>
</g>
<g opacity="0.2" filter="url(#filter8_f_6711_1025)">
<path d="M750.598 55.0322L799.166 152.365L863.897 64.9446L838.537 170.724L944.317 145.365L856.896 210.096L954.229 258.663L845.653 252.057L888.996 351.826L810.068 276.974L779.14 381.262L766.791 273.188L676.064 333.197L736.074 242.47L628 230.122L732.288 199.194L657.435 120.266L757.205 163.609L750.598 55.0322Z" fill="#1074EB"/>
</g>
<g opacity="0.2" filter="url(#filter9_f_6711_1025)">
<path d="M513.607 83.9856L519.234 95.2624L526.733 85.134L523.795 97.3895L536.05 94.4514L525.922 101.951L537.199 107.578L524.619 106.813L529.641 118.372L520.497 109.699L516.913 121.782L515.483 109.261L504.971 116.213L511.924 105.702L499.403 104.271L511.485 100.688L502.813 91.5434L514.372 96.5651L513.607 83.9856Z" fill="#1074EB"/>
</g>
</g>
<defs>
<filter id="filter0_f_6711_1025" x="-42.3088" y="-41" width="105.618" height="104.256" filterUnits="userSpaceOnUse" color-interpolation-filters="sRGB">
<feFlood flood-opacity="0" result="BackgroundImageFix"/>
<feBlend mode="normal" in="SourceGraphic" in2="BackgroundImageFix" result="shape"/>
<feGaussianBlur stdDeviation="4" result="effect1_foregroundBlur_6711_1025"/>
</filter>
<filter id="filter1_f_6711_1025" x="387.64" y="325.652" width="81.5938" height="81.5937" filterUnits="userSpaceOnUse" color-interpolation-filters="sRGB">
<feFlood flood-opacity="0" result="BackgroundImageFix"/>
<feBlend mode="normal" in="SourceGraphic" in2="BackgroundImageFix" result="shape"/>
<feGaussianBlur stdDeviation="4" result="effect1_foregroundBlur_6711_1025"/>
</filter>
<filter id="filter2_f_6711_1025" x="590.473" y="445.777" width="131.893" height="133.681" filterUnits="userSpaceOnUse" color-interpolation-filters="sRGB">
<feFlood flood-opacity="0" result="BackgroundImageFix"/>
<feBlend mode="normal" in="SourceGraphic" in2="BackgroundImageFix" result="shape"/>
<feGaussianBlur stdDeviation="4" result="effect1_foregroundBlur_6711_1025"/>
</filter>
<filter id="filter3_f_6711_1025" x="35.0483" y="229.452" width="42.1699" height="42.17" filterUnits="userSpaceOnUse" color-interpolation-filters="sRGB">
<feFlood flood-opacity="0" result="BackgroundImageFix"/>
<feBlend mode="normal" in="SourceGraphic" in2="BackgroundImageFix" result="shape"/>
<feGaussianBlur stdDeviation="4" result="effect1_foregroundBlur_6711_1025"/>
</filter>
<filter id="filter4_f_6711_1025" x="1045.05" y="381.452" width="42.1699" height="42.17" filterUnits="userSpaceOnUse" color-interpolation-filters="sRGB">
<feFlood flood-opacity="0" result="BackgroundImageFix"/>
<feBlend mode="normal" in="SourceGraphic" in2="BackgroundImageFix" result="shape"/>
<feGaussianBlur stdDeviation="4" result="effect1_foregroundBlur_6711_1025"/>
</filter>
<filter id="filter5_f_6711_1025" x="352.64" y="-40.3477" width="81.5938" height="81.5937" filterUnits="userSpaceOnUse" color-interpolation-filters="sRGB">
<feFlood flood-opacity="0" result="BackgroundImageFix"/>
<feBlend mode="normal" in="SourceGraphic" in2="BackgroundImageFix" result="shape"/>
<feGaussianBlur stdDeviation="4" result="effect1_foregroundBlur_6711_1025"/>
</filter>
<filter id="filter6_f_6711_1025" x="42.1226" y="356.596" width="125.489" height="125.489" filterUnits="userSpaceOnUse" color-interpolation-filters="sRGB">
<feFlood flood-opacity="0" result="BackgroundImageFix"/>
<feBlend mode="normal" in="SourceGraphic" in2="BackgroundImageFix" result="shape"/>
<feGaussianBlur stdDeviation="7.5" result="effect1_foregroundBlur_6711_1025"/>
</filter>
<filter id="filter7_f_6711_1025" x="1029.78" y="-78.6029" width="199.793" height="199.793" filterUnits="userSpaceOnUse" color-interpolation-filters="sRGB">
<feFlood flood-opacity="0" result="BackgroundImageFix"/>
<feBlend mode="normal" in="SourceGraphic" in2="BackgroundImageFix" result="shape"/>
<feGaussianBlur stdDeviation="7.5" result="effect1_foregroundBlur_6711_1025"/>
</filter>
<filter id="filter8_f_6711_1025" x="613" y="40.0322" width="356.23" height="356.23" filterUnits="userSpaceOnUse" color-interpolation-filters="sRGB">
<feFlood flood-opacity="0" result="BackgroundImageFix"/>
<feBlend mode="normal" in="SourceGraphic" in2="BackgroundImageFix" result="shape"/>
<feGaussianBlur stdDeviation="7.5" result="effect1_foregroundBlur_6711_1025"/>
</filter>
<filter id="filter9_f_6711_1025" x="484.403" y="68.9856" width="67.7964" height="67.7963" filterUnits="userSpaceOnUse" color-interpolation-filters="sRGB">
<feFlood flood-opacity="0" result="BackgroundImageFix"/>
<feBlend mode="normal" in="SourceGraphic" in2="BackgroundImageFix" result="shape"/>
<feGaussianBlur stdDeviation="7.5" result="effect1_foregroundBlur_6711_1025"/>
</filter>
<clipPath id="clip0_6711_1025">
<rect width="1140" height="500" rx="3" fill="white"/>
</clipPath>
</defs>
</svg>
