<svg width="58" height="37" viewBox="0 0 58 37" fill="none" xmlns="http://www.w3.org/2000/svg">
  <path d="M55 0H3C1.34315 0 0 1.34315 0 3V34C0 35.6569 1.34315 37 3 37H55C56.6569 37 58 35.6569 58 34V3C58 1.34315 56.6569 0 55 0Z" fill="white" />
  <path d="M21.8024 25.8058L24.2831 11.3196H28.2509L25.7684 25.8058H21.8024ZM40.1029 11.6319C39.3169 11.3384 38.085 11.0234 36.5469 11.0234C32.6263 11.0234 29.8646 12.9881 29.8412 15.8041C29.819 17.8857 31.8127 19.0469 33.3176 19.7398C34.8621 20.4499 35.3812 20.9027 35.3739 21.5368C35.3642 22.5077 34.1406 22.9514 33.0003 22.9514C31.4122 22.9514 30.5685 22.7318 29.2654 22.1909L28.7541 21.9608L28.1973 25.2037C29.124 25.608 30.8377 25.9583 32.617 25.9765C36.7878 25.9765 39.4952 24.0343 39.5261 21.0272C39.5409 19.3793 38.4839 18.1252 36.1948 17.0913C34.808 16.4212 33.9587 15.974 33.9677 15.2955C33.9677 14.6933 34.6866 14.0494 36.2399 14.0494C37.5373 14.0294 38.4773 14.311 39.2096 14.6044L39.5651 14.7716L40.1029 11.6319ZM50.3131 11.3194H47.2471C46.2973 11.3194 45.5866 11.5774 45.1695 12.5207L39.277 25.7963H43.4434C43.4434 25.7963 44.1245 24.0112 44.2786 23.6194C44.734 23.6194 48.7814 23.6256 49.3601 23.6256C49.4788 24.1327 49.8427 25.7963 49.8427 25.7963H53.5245L50.3131 11.3189V11.3194ZM45.4487 20.6737C45.7768 19.8391 47.0296 16.6242 47.0296 16.6242C47.0061 16.6628 47.3552 15.7855 47.5556 15.2416L47.8236 16.4906C47.8236 16.4906 48.5835 19.9486 48.7423 20.6737H45.4487ZM18.4341 11.3194L14.5496 21.1984L14.1356 19.1907C13.4125 16.8765 11.1594 14.3693 8.64062 13.114L12.1925 25.7828L16.3905 25.7781L22.6369 11.3192H18.4341" fill="#0E4595" />
  <path d="M10.9246 11.3187H4.52671L4.47607 11.6201C9.45352 12.8192 12.747 15.7169 14.1145 19.1984L12.7232 12.5414C12.483 11.6241 11.7865 11.3504 10.9248 11.3184" fill="#F2AE14" />
</svg>